<?xml version="1.0" standalone="no"?><!DOCTYPE svg PUBLIC "-//W3C//DTD SVG 1.1//EN" "http://www.w3.org/Graphics/SVG/1.1/DTD/svg11.dtd"><svg t="1566894210282" class="icon" viewBox="0 0 1024 1024" version="1.1" xmlns="http://www.w3.org/2000/svg" p-id="4088" xmlns:xlink="http://www.w3.org/1999/xlink" width="200" height="200"><defs><style type="text/css"></style></defs><path d="M521.8 119.88c-146.11 0-264.55 118.44-264.55 264.55 0 287.6 264.55 541.26 264.55 541.26s264.55-287.1 264.55-541.26c0-146.11-118.44-264.55-264.55-264.55z m0 388.24A120.72 120.72 0 1 1 642.53 387.4 120.72 120.72 0 0 1 521.8 508.12z" fill="#f4ea2a" p-id="4089"></path><path d="M692.8 172.27a269.55 269.55 0 0 0-460.15 190.6c0 66.22 14 136.1 41.67 207.7 22.07 57.16 52.84 115.55 91.44 173.54 65.68 98.68 132.31 163 133 163.62l3.68 3.53 3.46-3.75c0.66-0.72 67.2-73.29 132.81-176 38.57-60.39 69.32-119.26 91.38-175 27.66-69.88 41.69-135 41.69-193.64a267.79 267.79 0 0 0-78.98-190.6zM630.35 726C573.73 814.64 516.44 880.66 502 896.88c-14.76-14.79-71.61-73.74-127.9-158.31-60-90.08-131.44-228.39-131.44-375.71 0-143.12 116.43-259.55 259.55-259.55s259.54 116.44 259.54 259.56c0 130.03-71.46 269.23-131.4 363.13z" fill="#f4ea2a" p-id="4090"></path><path d="M502.2 240.11a125.72 125.72 0 1 0 125.72 125.72A125.87 125.87 0 0 0 502.2 240.11z m0 241.45a115.72 115.72 0 1 1 115.72-115.73A115.86 115.86 0 0 1 502.2 481.56z" fill="#f4ea2a" p-id="4091"></path></svg>