<?xml version="1.0" standalone="no"?><!DOCTYPE svg PUBLIC "-//W3C//DTD SVG 1.1//EN" "http://www.w3.org/Graphics/SVG/1.1/DTD/svg11.dtd"><svg t="1566893879944" class="icon" viewBox="0 0 1024 1024" version="1.1" xmlns="http://www.w3.org/2000/svg" p-id="1153" width="200" height="200" xmlns:xlink="http://www.w3.org/1999/xlink"><defs><style type="text/css"></style></defs><path d="M770.327273 977.454545A705.163636 705.163636 0 0 1 58.181818 295.563636a207.127273 207.127273 0 0 1 0-20.945454v-16.290909a228.072727 228.072727 0 0 1 116.363637-181.527273 230.4 230.4 0 0 1 302.545454 65.163636 228.072727 228.072727 0 0 1 27.927273 207.127273 223.418182 223.418182 0 0 1-179.2 148.945455 735.418182 735.418182 0 0 0 242.036363 230.4h9.309091l4.654546-4.654546a195.490909 195.490909 0 0 1 186.181818-132.654545h2.327273a195.490909 195.490909 0 0 1 193.163636 188.509091 193.163636 193.163636 0 0 1-16.290909 81.454545 195.490909 195.490909 0 0 1-165.236364 116.363636zM288.581818 93.090909a183.854545 183.854545 0 0 0-90.763636 23.272727 181.527273 181.527273 0 0 0-90.763637 144.290909v11.636364a181.527273 181.527273 0 0 0 0 18.618182A658.618182 658.618182 0 0 0 770.327273 930.909091h11.636363a148.945455 148.945455 0 0 0 125.672728-88.436364 146.618182 146.618182 0 0 0 11.636363-60.509091 151.272727 151.272727 0 0 0-146.618182-144.290909 146.618182 146.618182 0 0 0-144.290909 100.072728 55.854545 55.854545 0 0 1-32.581818 34.90909 58.181818 58.181818 0 0 1-51.2-4.654545 781.963636 781.963636 0 0 1-279.272727-276.945455l-6.981818-11.636363 13.963636-25.6h13.963636a181.527273 181.527273 0 0 0 174.545455-121.018182 181.527273 181.527273 0 0 0-23.272727-165.236364A183.854545 183.854545 0 0 0 288.581818 93.090909z" fill="#d81e06" p-id="1154"></path></svg>