<?xml version="1.0" standalone="no"?><!DOCTYPE svg PUBLIC "-//W3C//DTD SVG 1.1//EN" "http://www.w3.org/Graphics/SVG/1.1/DTD/svg11.dtd"><svg t="1566894168326" class="icon" viewBox="0 0 1024 1024" version="1.1" xmlns="http://www.w3.org/2000/svg" p-id="3244" xmlns:xlink="http://www.w3.org/1999/xlink" width="200" height="200"><defs><style type="text/css"></style></defs><path d="M929.575956 805.76051 92.575954 805.76051c-17.194614 0-31.197536-13.972223-31.197536-31.169907L61.378417 252.303306c0-17.165961 14.003945-31.168883 31.197536-31.168883l837.000002 0c17.195637 0 31.169907 14.003945 31.169907 31.168883l0 522.287297C960.745862 791.788288 946.771593 805.76051 929.575956 805.76051zM90.017688 778.445398l842.116533 0L932.134221 248.450559 90.017688 248.450559 90.017688 778.445398zM920.319128 802.568818 101.834828 802.568818c-6.094812 0-12.019755-1.725294-17.050328-5.116531l-17.280572-11.532661 292.65841-287.366893L511.06214 646.722354l150.929478-148.168598 292.803719 287.482527-17.508769 11.44568C932.223249 800.874223 926.357658 802.568818 920.319128 802.568818zM360.075357 537.918299 120.295272 772.666788l780.87268-0.718361L662.077575 537.918299 534.236955 666.361647c-12.335956 12.30628-33.383318 12.30628-45.717228 0L360.075357 537.918299zM511.06214 675.736155c-8.483208 0-16.502859-3.337002-22.541389-9.374508L64.512804 242.354723l16.273638-12.019755c5.320169-3.939729 11.588943-5.951549 18.202571-5.951549l824.177975 0c6.641257 0 12.881378 2.012843 18.198477 5.951549l16.273638 12.019755-424.006923 424.006923C527.594675 672.399153 519.574001 675.736155 511.06214 675.736155zM117.391129 252.563226l393.671011 393.669988 394.4477-394.388349L117.391129 252.563226z" p-id="3245" fill="#1296db"></path></svg>